<svg xmlns="http://www.w3.org/2000/svg" viewBox="0 0 1320 470">
  <rect width="1320" height="470" fill="#fff"/>
  <style>
    text { font-family: ui-monospace, SFMono-Regular, Menlo, Monaco, Consolas, monospace; }
    .title { font-size: 26px; font-weight: 700; fill: #111; }
    .panel-title { font-size: 20px; font-weight: 700; fill: #111; text-anchor: middle; }
    .axis { font-size: 15px; fill: #666; }
    .axis-strong { font-size: 16px; font-weight: 700; fill: #111; }
    .value { font-size: 15px; font-weight: 700; paint-order: stroke; stroke: #fff; stroke-width: 4px; stroke-linejoin: round; }
    .grid { stroke: #dedede; stroke-width: 1; }
    .frame { fill: #fafafa; stroke: #d6d6d6; stroke-width: 1.5; }
    .prepare { stroke: #2424d4; fill: none; }
    .deal { stroke: #2f7d3d; fill: none; }
    .seal { stroke: #d9251c; fill: none; }
    .prepare-text { fill: #2424d4; }
    .deal-text { fill: #2f7d3d; }
    .seal-text { fill: #d9251c; }
    .series { stroke-width: 3; }
  </style>

  <text class="title" x="34" y="39">Cost Across Live State</text>
  <text class="axis-strong" x="1286" y="39" text-anchor="end">logarithmic axes · A = N · h = 1</text>

  <rect class="frame" x="30" y="90" width="400" height="360" rx="3"/>
  <text class="panel-title" x="230" y="122">Operator: Prepare</text>
  <text class="axis" x="95" y="138" text-anchor="end">ms</text>
  <line class="grid" x1="105" y1="150" x2="395" y2="150"/>
  <line class="grid" x1="105" y1="194" x2="395" y2="194"/>
  <line class="grid" x1="105" y1="238" x2="395" y2="238"/>
  <line class="grid" x1="105" y1="282" x2="395" y2="282"/>
  <line class="grid" x1="105" y1="326" x2="395" y2="326"/>
  <line class="grid" x1="105" y1="370" x2="395" y2="370"/>
  <text class="axis" x="95" y="155" text-anchor="end">10,000</text>
  <text class="axis" x="95" y="199" text-anchor="end">1,000</text>
  <text class="axis" x="95" y="243" text-anchor="end">100</text>
  <text class="axis" x="95" y="287" text-anchor="end">10</text>
  <text class="axis" x="95" y="331" text-anchor="end">1</text>
  <text class="axis" x="95" y="375" text-anchor="end">0.1</text>
  <text class="axis-strong" x="120" y="402" text-anchor="middle">1k</text>
  <text class="axis-strong" x="205" y="402" text-anchor="middle">10k</text>
  <text class="axis-strong" x="290" y="402" text-anchor="middle">100k</text>
  <text class="axis-strong" x="380" y="402" text-anchor="middle">1M</text>
  <text class="axis" x="250" y="430" text-anchor="middle">live accounts (N)</text>
  <path class="prepare series" d="M120 342.5 L205 312.5 L290 267.6 L380 223.4"/>
  <circle cx="120" cy="342.5" r="5" fill="#fff" stroke="#2424d4" stroke-width="3"/>
  <circle cx="205" cy="312.5" r="5" fill="#fff" stroke="#2424d4" stroke-width="3"/>
  <circle cx="290" cy="267.6" r="5" fill="#fff" stroke="#2424d4" stroke-width="3"/>
  <circle cx="380" cy="223.4" r="5" fill="#fff" stroke="#2424d4" stroke-width="3"/>
  <text class="value prepare-text" x="128" y="331">0.422</text>
  <text class="value prepare-text" x="213" y="302">2.03</text>
  <text class="value prepare-text" x="298" y="257">21.2</text>
  <text class="value prepare-text" x="372" y="212" text-anchor="end">215</text>

  <rect class="frame" x="460" y="90" width="400" height="360" rx="3"/>
  <text class="panel-title" x="660" y="122">Operator: Deal</text>
  <text class="axis" x="525" y="138" text-anchor="end">ms</text>
  <line class="grid" x1="535" y1="150" x2="825" y2="150"/>
  <line class="grid" x1="535" y1="194" x2="825" y2="194"/>
  <line class="grid" x1="535" y1="238" x2="825" y2="238"/>
  <line class="grid" x1="535" y1="282" x2="825" y2="282"/>
  <line class="grid" x1="535" y1="326" x2="825" y2="326"/>
  <line class="grid" x1="535" y1="370" x2="825" y2="370"/>
  <text class="axis" x="525" y="155" text-anchor="end">10,000</text>
  <text class="axis" x="525" y="199" text-anchor="end">1,000</text>
  <text class="axis" x="525" y="243" text-anchor="end">100</text>
  <text class="axis" x="525" y="287" text-anchor="end">10</text>
  <text class="axis" x="525" y="331" text-anchor="end">1</text>
  <text class="axis" x="525" y="375" text-anchor="end">0.1</text>
  <text class="axis-strong" x="550" y="402" text-anchor="middle">1k</text>
  <text class="axis-strong" x="635" y="402" text-anchor="middle">10k</text>
  <text class="axis-strong" x="720" y="402" text-anchor="middle">100k</text>
  <text class="axis-strong" x="810" y="402" text-anchor="middle">1M</text>
  <text class="axis" x="680" y="430" text-anchor="middle">live accounts (N)</text>
  <path class="deal series" d="M550 360.6 L635 347.9 L720 314.7 L810 264.5"/>
  <circle cx="550" cy="360.6" r="5" fill="#fff" stroke="#2f7d3d" stroke-width="3"/>
  <circle cx="635" cy="347.9" r="5" fill="#fff" stroke="#2f7d3d" stroke-width="3"/>
  <circle cx="720" cy="314.7" r="5" fill="#fff" stroke="#2f7d3d" stroke-width="3"/>
  <circle cx="810" cy="264.5" r="5" fill="#fff" stroke="#2f7d3d" stroke-width="3"/>
  <text class="value deal-text" x="558" y="349">0.164</text>
  <text class="value deal-text" x="643" y="337">0.318</text>
  <text class="value deal-text" x="728" y="304">1.81</text>
  <text class="value deal-text" x="802" y="254" text-anchor="end">24.9</text>

  <rect class="frame" x="890" y="90" width="400" height="360" rx="3"/>
  <text class="panel-title" x="1090" y="122">Validator: Seal</text>
  <text class="axis" x="955" y="138" text-anchor="end">ms</text>
  <line class="grid" x1="965" y1="150" x2="1255" y2="150"/>
  <line class="grid" x1="965" y1="194" x2="1255" y2="194"/>
  <line class="grid" x1="965" y1="238" x2="1255" y2="238"/>
  <line class="grid" x1="965" y1="282" x2="1255" y2="282"/>
  <line class="grid" x1="965" y1="326" x2="1255" y2="326"/>
  <line class="grid" x1="965" y1="370" x2="1255" y2="370"/>
  <text class="axis" x="955" y="155" text-anchor="end">10,000</text>
  <text class="axis" x="955" y="199" text-anchor="end">1,000</text>
  <text class="axis" x="955" y="243" text-anchor="end">100</text>
  <text class="axis" x="955" y="287" text-anchor="end">10</text>
  <text class="axis" x="955" y="331" text-anchor="end">1</text>
  <text class="axis" x="955" y="375" text-anchor="end">0.1</text>
  <text class="axis-strong" x="980" y="402" text-anchor="middle">1k</text>
  <text class="axis-strong" x="1065" y="402" text-anchor="middle">10k</text>
  <text class="axis-strong" x="1150" y="402" text-anchor="middle">100k</text>
  <text class="axis-strong" x="1240" y="402" text-anchor="middle">1M</text>
  <text class="axis" x="1110" y="430" text-anchor="middle">live accounts (N)</text>
  <path class="seal series" d="M980 307.6 L1065 275.2 L1150 233.5 L1240 189.2"/>
  <circle cx="980" cy="307.6" r="5" fill="#fff" stroke="#d9251c" stroke-width="3"/>
  <circle cx="1065" cy="275.2" r="5" fill="#fff" stroke="#d9251c" stroke-width="3"/>
  <circle cx="1150" cy="233.5" r="5" fill="#fff" stroke="#d9251c" stroke-width="3"/>
  <circle cx="1240" cy="189.2" r="5" fill="#fff" stroke="#d9251c" stroke-width="3"/>
  <text class="value seal-text" x="988" y="296">2.62</text>
  <text class="value seal-text" x="1073" y="264">14.3</text>
  <text class="value seal-text" x="1158" y="223">126</text>
  <text class="value seal-text" x="1232" y="178" text-anchor="end">1,286</text>
</svg>
