<svg width="1050" height="1050" viewBox="0 0 1050 1050" fill="none" xmlns="http://www.w3.org/2000/svg">
<rect width="1050" height="1050" fill="black"/>
<rect width="1050" height="1050" fill="white"/>
<g clip-path="url(#clip0_0_1)">
<rect width="885" height="863" transform="translate(82 94)" fill="white"/>
<path d="M237.766 155.802L256.621 168.599C248.307 187.6 240.135 200.591 232.111 207.571C224.086 214.453 215.818 217.896 207.31 217.896C193.773 217.12 181.542 210.091 170.616 196.81C159.787 183.431 152.148 173.979 147.701 168.453C143.253 162.831 137.5 160.068 130.441 160.165C122.996 160.165 117.34 163.703 113.472 170.78C109.605 177.76 105.544 186.679 101.29 197.537L82 186.485C87.608 168.55 94.8597 155.318 103.755 146.786C112.651 138.255 121.594 133.99 130.586 133.99C146.927 133.796 161.527 143.49 174.387 163.073C187.343 182.656 198.318 192.447 207.31 192.447C214.949 192.447 221.185 188.279 226.019 179.941C230.854 171.507 234.769 163.461 237.766 155.802Z" fill="black"/>
<path d="M363.512 98.5078V162.927H428.052V187.503H363.512V251.922H339.147V187.503H274.751V162.927H339.147V98.5078H363.512Z" fill="black"/>
<path d="M452.853 164.527H606.589V189.103H452.853V164.527Z" fill="black"/>
<path d="M788.027 143.151L723.633 178.051L788.027 213.096L777.876 230.837L717.251 194.338V262.102H696.511V194.338L635.887 230.837L625.734 213.096L690.275 178.051L625.734 143.151L635.887 125.265L696.511 161.764V94H717.251V161.764L777.876 125.265L788.027 143.151Z" fill="black"/>
<path d="M187.73 389.681V687.495H162.784V389.681H187.73Z" fill="black"/>
<path d="M591.942 608.969C584.786 613.138 577.39 616.24 569.751 618.276C562.209 620.408 554.474 621.475 546.545 621.475C521.406 621.475 501.73 613.913 487.517 598.79C473.4 583.666 466.342 562.727 466.342 535.97C466.342 509.213 473.4 488.273 487.517 473.15C501.73 458.026 521.406 450.465 546.545 450.465C554.378 450.465 562.016 451.483 569.46 453.518C576.906 455.555 584.4 458.705 591.942 462.971V491.036C584.883 484.735 577.776 480.178 570.622 477.367C563.563 474.556 555.538 473.15 546.545 473.15C529.818 473.15 516.958 478.579 507.966 489.436C498.975 500.294 494.478 515.805 494.478 535.97C494.478 556.037 498.975 571.549 507.966 582.503C517.056 593.361 529.915 598.79 546.545 598.79C555.828 598.79 564.143 597.385 571.492 594.573C578.84 591.665 585.656 587.206 591.942 581.195V608.969Z" fill="black"/>
<path d="M900.429 445.957V510.377H964.969V534.952H900.429V599.372H876.063V534.952H811.668V510.377H876.063V445.957H900.429Z" fill="black"/>
<path d="M184.539 793.406V857.826H249.079V882.401H184.539V946.821H160.174V882.401H95.7783V857.826H160.174V793.406H184.539Z" fill="black"/>
<path d="M416.739 850.7L435.594 863.497C427.278 882.498 419.108 895.489 411.083 902.469C403.057 909.352 394.791 912.793 386.282 912.793C372.745 912.018 360.515 904.989 349.588 891.708C338.759 878.33 331.121 868.878 326.673 863.352C322.225 857.729 316.472 854.966 309.413 855.062C301.969 855.062 296.312 858.602 292.445 865.678C288.577 872.658 284.516 881.577 280.261 892.435L260.973 881.383C266.581 863.449 273.832 850.216 282.727 841.685C291.623 833.153 300.567 828.888 309.559 828.888C325.899 828.693 340.5 838.388 353.359 857.971C366.316 877.554 377.29 887.345 386.282 887.345C393.92 887.345 400.157 883.177 404.991 874.839C409.826 866.405 413.742 858.359 416.739 850.7Z" fill="black"/>
<path d="M721.457 793.406V857.826H785.997V882.401H721.457V946.821H697.091V882.401H632.695V857.826H697.091V793.406H721.457Z" fill="black"/>
<path d="M967 838.049L902.604 872.949L967 907.995L956.847 925.736L896.224 889.236V957H875.483V889.236L814.859 925.736L804.706 907.995L869.246 872.949L804.706 838.049L814.859 820.163L875.483 856.662V788.898H896.224V856.662L956.847 820.163L967 838.049Z" fill="black"/>
</g>
<defs>
<clipPath id="clip0_0_1">
<rect width="885" height="863" fill="white" transform="translate(82 94)"/>
</clipPath>
</defs>
</svg>
