<svg width="1000" height="1000" viewBox="0 0 1000 1000" fill="none" xmlns="http://www.w3.org/2000/svg">
<rect width="1000" height="1000" fill="black"/>
<rect width="1000" height="1000" fill="#DDDDDD"/>
<g clip-path="url(#clip0_0_1)">
<path d="M223.31 143.654L241.505 156.006C233.481 174.346 225.596 186.885 217.853 193.623C210.109 200.266 202.131 203.589 193.92 203.589C180.858 202.84 169.055 196.055 158.512 183.236C148.062 170.322 140.691 161.199 136.399 155.865C132.107 150.438 126.556 147.771 119.745 147.865C112.56 147.865 107.102 151.28 103.37 158.111C99.6379 164.848 95.7192 173.457 91.6139 183.937L73 173.27C78.4116 155.959 85.4092 143.186 93.9931 134.951C102.577 126.717 111.207 122.599 119.885 122.599C135.653 122.412 149.741 131.77 162.151 150.672C174.653 169.574 185.244 179.025 193.92 179.025C201.292 179.025 207.309 175.001 211.974 166.954C216.64 158.813 220.418 151.046 223.31 143.654Z" fill="black"/>
<path d="M344.651 88.3513V150.532H406.931V174.253H344.651V236.433H321.139V174.253H258.999V150.532H321.139V88.3513H344.651Z" fill="black"/>
<path d="M430.862 152.075H579.214V175.797H430.862V152.075Z" fill="black"/>
<path d="M754.296 131.442L692.158 165.129L754.296 198.956L744.5 216.08L685.999 180.85V246.258H665.986V180.85L607.485 216.08L597.688 198.956L659.968 165.129L597.688 131.442L607.485 114.178L665.986 149.409V84H685.999V149.409L744.5 114.178L754.296 131.442Z" fill="black"/>
<path d="M175.027 369.402V656.863H150.955V369.402H175.027Z" fill="black"/>
<path d="M565.079 581.068C558.174 585.091 551.037 588.086 543.666 590.051C536.388 592.109 528.924 593.139 521.273 593.139C497.014 593.139 478.027 585.84 464.312 571.242C450.69 556.644 443.879 536.432 443.879 510.606C443.879 484.779 450.69 464.567 464.312 449.97C478.027 435.372 497.014 428.074 521.273 428.074C528.831 428.074 536.201 429.056 543.385 431.02C550.571 432.986 557.801 436.027 565.079 440.145V467.234C558.268 461.152 551.41 456.754 544.506 454.04C537.695 451.327 529.951 449.97 521.273 449.97C505.132 449.97 492.722 455.21 484.045 465.69C475.369 476.17 471.03 491.142 471.03 510.606C471.03 529.976 475.369 544.948 484.045 555.522C492.816 566.002 505.225 571.242 521.273 571.242C530.231 571.242 538.254 569.886 545.346 567.172C552.437 564.365 559.014 560.06 565.079 554.259V581.068Z" fill="black"/>
<path d="M862.761 423.722V485.903H925.041V509.623H862.761V571.804H839.248V509.623H777.109V485.903H839.248V423.722H862.761Z" fill="black"/>
<path d="M171.947 759.093V821.274H234.227V844.994H171.947V907.175H148.435V844.994H86.2954V821.274H148.435V759.093H171.947Z" fill="black"/>
<path d="M396.014 814.395L414.208 826.748C406.184 845.088 398.3 857.627 390.556 864.365C382.811 871.008 374.835 874.33 366.624 874.33C353.561 873.582 341.759 866.797 331.215 853.977C320.765 841.065 313.395 831.941 309.103 826.607C304.811 821.18 299.259 818.513 292.448 818.606C285.264 818.606 279.805 822.022 276.074 828.853C272.341 835.59 268.422 844.199 264.317 854.679L245.704 844.012C251.115 826.701 258.113 813.928 266.696 805.694C275.28 797.458 283.911 793.341 292.588 793.341C308.356 793.154 322.445 802.511 334.854 821.413C347.357 840.316 357.946 849.766 366.624 849.766C373.994 849.766 380.013 845.743 384.678 837.695C389.343 829.555 393.122 821.788 396.014 814.395Z" fill="black"/>
<path d="M690.057 759.093V821.274H752.337V844.994H690.057V907.175H666.545V844.994H604.405V821.274H666.545V759.093H690.057Z" fill="black"/>
<path d="M927 802.184L864.86 835.871L927 869.698L917.203 886.822L858.703 851.592V917H838.689V851.592L780.188 886.822L770.391 869.698L832.67 835.871L770.391 802.184L780.188 784.919L838.689 820.15V754.742H858.703V820.15L917.203 784.919L927 802.184Z" fill="black"/>
</g>
<defs>
<clipPath id="clip0_0_1">
<rect width="854" height="833" fill="white" transform="translate(73 84)"/>
</clipPath>
</defs>
</svg>
