<svg version="1.2" xmlns="http://www.w3.org/2000/svg" viewBox="0 0 82 80" width="82" height="80">
	<title>cw</title>
	<style>
		.s0 { fill: #000000 } 
	</style>
	<rect width="82" height="80" id="Color Fill 1" style="fill: #ffffff"/>
	<path class="s0" d="m14.4 5.7l1.8 1.2q-1.2 2.7-2.3 3.6-1.1 1-2.3 1-1.9-0.1-3.4-2-1.5-1.8-2.1-2.6-0.6-0.8-1.6-0.8-1 0-1.6 1-0.5 1-1.1 2.5l-1.8-1q0.8-2.5 2-3.7 1.3-1.2 2.5-1.2 2.3 0 4.1 2.7 1.8 2.7 3 2.7 1.1 0 1.7-1.1 0.7-1.2 1.1-2.3z"/>
	<path class="s0" d="m26.1 0.4v6h6v2.3h-6v5.9h-2.3v-5.9h-5.9v-2.3h5.9v-6z"/>
	<path class="s0" d="m34.4 6.5h14.2v2.3h-14.2z"/>
	<path class="s0" d="m65.4 4.6l-5.9 3.2 5.9 3.2-0.9 1.7-5.6-3.4v6.3h-2v-6.3l-5.6 3.4-0.9-1.7 6-3.2-6-3.2 0.9-1.7 5.6 3.4v-6.3h2v6.3l5.6-3.4z"/>
	<path class="s0" d="m9.8 27.4v27.6h-2.3v-27.6z"/>
	<path class="s0" d="m47.2 47.7q-0.9 0.6-2 0.9-1.1 0.3-2.2 0.3-3.5 0-5.4-2.1-2-2.1-2-5.8 0-3.7 2-5.9 1.9-2.1 5.4-2.1 1.1 0 2.2 0.3 1 0.3 2 0.9v2.6q-0.9-0.9-1.9-1.3-1-0.4-2.3-0.4-2.3 0-3.5 1.6-1.3 1.5-1.3 4.3 0 2.8 1.3 4.3 1.2 1.5 3.5 1.5 1.3 0 2.4-0.4 1-0.4 1.8-1.2z"/>
	<path class="s0" d="m75.8 32.6v6h6v2.3h-6v5.9h-2.2v-5.9h-6v-2.3h6v-6z"/>
	<path class="s0" d="m9.5 64.8v6h6v2.3h-6v6h-2.3v-6h-5.9v-2.3h5.9v-6z"/>
	<path class="s0" d="m31 70.1l1.8 1.2q-1.2 2.7-2.3 3.6-1.1 1-2.3 1-1.9-0.1-3.4-2-1.5-1.8-2.1-2.6-0.6-0.8-1.6-0.7-1.1 0-1.6 0.9-0.5 1-1.1 2.5l-1.8-1q0.8-2.5 2-3.7 1.2-1.2 2.5-1.2 2.3 0 4 2.7 1.8 2.7 3.1 2.7 1.1 0 1.7-1.1 0.7-1.2 1.1-2.3z"/>
	<path class="s0" d="m59.2 64.8v6h6v2.3h-6v6h-2.2v-6h-6v-2.3h6v-6z"/>
	<path class="s0" d="m82 69l-6 3.2 6 3.3-0.9 1.6-5.7-3.4v6.3h-1.9v-6.3l-5.6 3.4-0.9-1.6 5.9-3.3-5.9-3.2 0.9-1.7 5.6 3.4v-6.3h1.9v6.3l5.7-3.4z"/>
</svg>